<?xml version='1.0' encoding='utf-8'?>
<mxGraphModel grid="0">
  <root>
    <mxCell id="0" />
    <mxCell id="1" parent="0" />
    <mxCell id="node1" value="&lt;b&gt;&lt;font style='font-size: 14.0px;' face='Times,serif' color='#000000'&gt;Initialization &lt;/font&gt;&lt;/b&gt;" style="ellipse;shape=doubleEllipse;aspect=fixed;verticalAlign=middle;html=1;rounded=0;labelBackgroundColor=none;strokeColor=black;fillColor=none;strokeWidth=1;dashed=0;" parent="1" vertex="1">
      <mxGeometry x="96.06000000000002" y="370.42" width="172.92" height="172.92" as="geometry" />
    </mxCell>
    <mxCell id="node2" value="&lt;b&gt;&lt;font style='font-size: 14.0px;' face='Times,serif' color='#000000'&gt;IMD enable&lt;/font&gt;&lt;/b&gt;" style="ellipse;shape=doubleEllipse;aspect=fixed;verticalAlign=middle;html=1;rounded=0;labelBackgroundColor=none;strokeColor=black;fillColor=none;strokeWidth=1;dashed=0;" parent="1" vertex="1">
      <mxGeometry x="44.11" y="588.34" width="150.82" height="150.82" as="geometry" />
    </mxCell>
    <mxCell id="node3" value="&lt;b&gt;&lt;font style='font-size: 14.0px;' face='Times,serif' color='#000000'&gt;Error&lt;/font&gt;&lt;/b&gt;" style="ellipse;aspect=fixed;verticalAlign=middle;html=1;rounded=0;labelBackgroundColor=none;strokeColor=black;fillColor=none;strokeWidth=1;dashed=0;" parent="1" vertex="1">
      <mxGeometry x="58.83" y="1154.83" width="81.38" height="81.38" as="geometry" />
    </mxCell>
    <mxCell id="node4" value="&lt;b&gt;&lt;font style='font-size: 14.0px;' face='Times,serif' color='#000000'&gt;Running&lt;/font&gt;&lt;/b&gt;" style="ellipse;shape=doubleEllipse;aspect=fixed;verticalAlign=middle;html=1;rounded=0;labelBackgroundColor=none;strokeColor=black;fillColor=none;strokeWidth=1;dashed=0;" parent="1" vertex="1">
      <mxGeometry x="38.88999999999999" y="800.4" width="119.26" height="119.26" as="geometry" />
    </mxCell>
    <mxCell id="node5" value="&lt;b&gt;&lt;font style='font-size: 14.0px;' face='Times,serif' color='#000000'&gt;Shutdown&lt;/font&gt;&lt;/b&gt;" style="ellipse;shape=doubleEllipse;aspect=fixed;verticalAlign=middle;html=1;rounded=0;labelBackgroundColor=none;strokeColor=black;fillColor=none;strokeWidth=1;dashed=0;" parent="1" vertex="1">
      <mxGeometry x="82.05000000000001" y="980.9000000000001" width="132.94" height="132.94" as="geometry" />
    </mxCell>
    <mxCell id="node6" value="&lt;b&gt;&lt;font style='font-size: 14.0px;' face='Times,serif' color='#000000'&gt;Startup&lt;/font&gt;&lt;/b&gt;" style="ellipse;aspect=fixed;verticalAlign=middle;html=1;rounded=0;labelBackgroundColor=none;strokeColor=black;fillColor=none;strokeWidth=1;dashed=0;" parent="1" vertex="1">
      <mxGeometry x="129.21" y="3.999999999999943" width="106.62" height="106.62" as="geometry" />
    </mxCell>
    <mxCell id="node7" value="&lt;b&gt;&lt;font style='font-size: 14.0px;' face='Times,serif' color='#000000'&gt;Uninitialized&lt;/font&gt;&lt;/b&gt;" style="ellipse;aspect=fixed;verticalAlign=middle;html=1;rounded=0;labelBackgroundColor=none;strokeColor=black;fillColor=none;strokeWidth=1;dashed=0;" parent="1" vertex="1">
      <mxGeometry x="99.75000000000001" y="147.6300000000001" width="165.54" height="165.54" as="geometry" />
    </mxCell>
    <mxCell id="edge1" style="html=1;endArrow=block;dashed=0;endFill=1;startArrow=none;startFill=0;fillColor=black;strokeColor=black;strokeWidth=1;rounded=0;exitX=0.3471;exitY=1.0000;entryX=0.6756;entryY=0.0000;" parent="1" edge="1" source="node1" target="node2">
      <mxGeometry as="geometry" relative="1">
        <mxPoint x="156.08" y="543.87" as="sourcePoint" />
        <mxPoint x="146.0" y="576.6500000000001" as="targetPoint" />
      </mxGeometry>
    </mxCell>
    <mxCell id="edge2" style="html=1;endArrow=block;dashed=0;endFill=1;startArrow=none;startFill=0;fillColor=black;strokeColor=black;strokeWidth=1;curved=1;exitX=0.7185;exitY=1.0000;entryX=1.0000;entryY=0.2617;" parent="1" edge="1" source="node1" target="node3">
      <mxGeometry as="geometry" relative="1">
        <mxPoint x="220.31" y="539.3100000000001" as="sourcePoint" />
        <mxPoint x="148.21" y="1176.13" as="targetPoint" />
        <Array as="points">
          <mxPoint x="246.52" y="609.10240433213" />
          <mxPoint x="246.52" y="662.75" />
          <mxPoint x="246.52" y="1048.934838454179" />
          <mxPoint x="246.52855594845215" y="1092.7899650291715" />
          <mxPoint x="202.40732604830194" y="1150.944773071085" />
        </Array>
      </mxGeometry>
    </mxCell>
    <mxCell id="edge4" style="html=1;endArrow=block;dashed=0;endFill=1;startArrow=none;startFill=0;fillColor=black;strokeColor=black;strokeWidth=1;curved=1;exitX=0.1461;exitY=1.0000;entryX=0.1720;entryY=0.0000;" parent="1" edge="1" source="node2" target="node3">
      <mxGeometry as="geometry" relative="1">
        <mxPoint x="66.15" y="723.02" as="sourcePoint" />
        <mxPoint x="72.83" y="1150.41" as="targetPoint" />
        <Array as="points">
          <mxPoint x="-12.893169134881656" y="916.3229196732805" />
          <mxPoint x="52.794259333241214" y="1101.101324401911" />
          <mxPoint x="63.547425221107005" y="1132.5324485739839" />
        </Array>
      </mxGeometry>
    </mxCell>
    <mxCell id="edge3" style="html=1;endArrow=block;dashed=0;endFill=1;startArrow=none;startFill=0;fillColor=black;strokeColor=black;strokeWidth=1;rounded=0;exitX=0.4440;exitY=1.0000;entryX=0.5670;entryY=0.0000;" parent="1" edge="1" source="node2" target="node4">
      <mxGeometry as="geometry" relative="1">
        <mxPoint x="111.07" y="742.9300000000001" as="sourcePoint" />
        <mxPoint x="106.51" y="785.11" as="targetPoint" />
      </mxGeometry>
    </mxCell>
    <mxCell id="label_edge3" style="edgeLabel;html=1;align=center;verticalAlign=bottom;resizable=0;points=[];" parent="edge3" value="&lt;b&gt;&lt;font style='font-size: 14.0px;' face='Times,serif' color='#000000'&gt;Request&lt;/font&gt;&lt;/b&gt;" vertex="1" connectable="0">
      <mxGeometry as="geometry" relative="1" />
    </mxCell>
    <mxCell id="edge9" style="html=1;endArrow=block;dashed=0;endFill=1;startArrow=none;startFill=0;fillColor=black;strokeColor=black;strokeWidth=1;curved=1;exitX=0.3481;exitY=1.0000;entryX=0.2361;entryY=0.0000;" parent="1" edge="1" source="node4" target="node3">
      <mxGeometry as="geometry" relative="1">
        <mxPoint x="80.41" y="921.54" as="sourcePoint" />
        <mxPoint x="78.04" y="1147.67" as="targetPoint" />
        <Array as="points">
          <mxPoint x="68.87411286040943" y="982.1512982502546" />
          <mxPoint x="58.888949045776165" y="1061.4798633736023" />
          <mxPoint x="72.06057465266454" y="1131.2901011023416" />
        </Array>
      </mxGeometry>
    </mxCell>
    <mxCell id="edge8" style="html=1;endArrow=block;dashed=0;endFill=1;startArrow=none;startFill=0;fillColor=black;strokeColor=black;strokeWidth=1;curved=1;exitX=1.0000;exitY=0.3654;entryX=1.0000;entryY=0.6058;" parent="1" edge="1" source="node4" target="node4">
      <mxGeometry as="geometry" relative="1">
        <mxPoint x="160.46" y="843.98" as="sourcePoint" />
        <mxPoint x="171.37" y="872.6500000000001" as="targetPoint" />
        <Array as="points">
          <mxPoint x="180.15" y="868.0986029411765" />
        </Array>
      </mxGeometry>
    </mxCell>
    <mxCell id="edge7" style="html=1;endArrow=block;dashed=0;endFill=1;startArrow=none;startFill=0;fillColor=black;strokeColor=black;strokeWidth=1;rounded=0;exitX=0.6379;exitY=1.0000;entryX=0.3408;entryY=0.0000;" parent="1" edge="1" source="node4" target="node5">
      <mxGeometry as="geometry" relative="1">
        <mxPoint x="114.97" y="921.98" as="sourcePoint" />
        <mxPoint x="127.36" y="967.9200000000001" as="targetPoint" />
      </mxGeometry>
    </mxCell>
    <mxCell id="label_edge7" style="edgeLabel;html=1;align=center;verticalAlign=bottom;resizable=0;points=[];" parent="edge7" value="&lt;b&gt;&lt;font style='font-size: 14.0px;' face='Times,serif' color='#000000'&gt;Request&lt;/font&gt;&lt;/b&gt;" vertex="1" connectable="0">
      <mxGeometry as="geometry" relative="1" />
    </mxCell>
    <mxCell id="edge5" style="html=1;endArrow=block;dashed=0;endFill=1;startArrow=none;startFill=0;fillColor=black;strokeColor=black;strokeWidth=1;curved=1;exitX=0.7617;exitY=0.0000;entryX=0.8336;entryY=1.0000;" parent="1" edge="1" source="node5" target="node2">
      <mxGeometry as="geometry" relative="1">
        <mxPoint x="183.31" y="986.11" as="sourcePoint" />
        <mxPoint x="169.84" y="739.3900000000001" as="targetPoint" />
        <Array as="points">
          <mxPoint x="206.9752425233896" y="898.0403508362001" />
          <mxPoint x="191.07589466016876" y="805.955587807524" />
          <mxPoint x="185.22689318520167" y="770.0438439959086" />
        </Array>
      </mxGeometry>
    </mxCell>
    <mxCell id="edge6" style="html=1;endArrow=block;dashed=0;endFill=1;startArrow=none;startFill=0;fillColor=black;strokeColor=black;strokeWidth=1;rounded=0;exitX=0.3330;exitY=1.0000;entryX=0.7016;entryY=0.0000;" parent="1" edge="1" source="node5" target="node3">
      <mxGeometry as="geometry" relative="1">
        <mxPoint x="126.32" y="1114.6100000000001" as="sourcePoint" />
        <mxPoint x="115.93" y="1145.5900000000001" as="targetPoint" />
      </mxGeometry>
    </mxCell>
    <mxCell id="edge10" style="html=1;endArrow=block;dashed=0;endFill=1;startArrow=none;startFill=0;fillColor=black;strokeColor=black;strokeWidth=1;rounded=0;exitX=0.5000;exitY=1.0000;entryX=0.5000;entryY=0.0000;" parent="1" edge="1" source="node6" target="node7">
      <mxGeometry as="geometry" relative="1">
        <mxPoint x="182.52" y="111.03999999999996" as="sourcePoint" />
        <mxPoint x="182.52" y="136.01" as="targetPoint" />
      </mxGeometry>
    </mxCell>
    <mxCell id="edge11" style="html=1;endArrow=block;dashed=0;endFill=1;startArrow=none;startFill=0;fillColor=black;strokeColor=black;strokeWidth=1;rounded=0;exitX=0.5000;exitY=1.0000;entryX=0.5000;entryY=0.0000;" parent="1" edge="1" source="node7" target="node1">
      <mxGeometry as="geometry" relative="1">
        <mxPoint x="182.52" y="313.39" as="sourcePoint" />
        <mxPoint x="182.52" y="355.0400000000001" as="targetPoint" />
      </mxGeometry>
    </mxCell>
    <mxCell id="label_edge11" style="edgeLabel;html=1;align=center;verticalAlign=bottom;resizable=0;points=[];" parent="edge11" value="&lt;b&gt;&lt;font style='font-size: 14.0px;' face='Times,serif' color='#000000'&gt;Request&lt;/font&gt;&lt;/b&gt;" vertex="1" connectable="0">
      <mxGeometry as="geometry" relative="1" />
    </mxCell>
  </root>
</mxGraphModel>
